<svg id="f58a72a1-4161-44a6-a22a-523dd3bc39ee" data-name="레이어 1" xmlns="http://www.w3.org/2000/svg" viewBox="0 0 24 24">
  <title>icon</title>
  <path d="M8.41553,14.66113l1.34375-.17968a2.959,2.959,0,0,0,.78808,1.64648,1.9461,1.9461,0,0,0,1.35547.50391,2.1704,2.1704,0,0,0,1.60156-.65723,2.21618,2.21618,0,0,0,.65332-1.62793,2.05955,2.05955,0,0,0-.60449-1.52637,2.08874,2.08874,0,0,0-1.53808-.60156,3.85364,3.85364,0,0,0-.94825.14941l.14844-1.17968a2.10476,2.10476,0,0,0,.2168.01464,2.768,2.768,0,0,0,1.5459-.44824,1.53325,1.53325,0,0,0,.6875-1.38086,1.6358,1.6358,0,0,0-.501-1.22558,1.77752,1.77752,0,0,0-1.292-.48535,1.833,1.833,0,0,0-1.30664.49316A2.47473,2.47473,0,0,0,9.894,9.63477L8.55029,9.39648A3.44974,3.44974,0,0,1,9.67041,7.30176a3.233,3.233,0,0,1,2.17285-.74317,3.58577,3.58577,0,0,1,1.65039.38379A2.78386,2.78386,0,0,1,14.647,7.99219a2.6921,2.6921,0,0,1,.39942,1.41113,2.31038,2.31038,0,0,1-.38086,1.292,2.59685,2.59685,0,0,1-1.127.92578,2.54474,2.54474,0,0,1,1.50782.92969,2.832,2.832,0,0,1,.53808,1.7666,3.23094,3.23094,0,0,1-1.0459,2.43067,3.67415,3.67415,0,0,1-2.64355.99707,3.434,3.434,0,0,1-2.39258-.85938A3.31953,3.31953,0,0,1,8.41553,14.66113Z"/>
  <rect width="24" height="24" style="fill: none"/>
</svg>
