<svg id="a7d5f978-ab60-4570-ba4f-329c738b3cfa" data-name="레이어 1" xmlns="http://www.w3.org/2000/svg" viewBox="0 0 24 24">
  <title>icon</title>
  <path d="M8.37061,14.68359l1.41162-.12011a2.529,2.529,0,0,0,.728,1.5498,1.97721,1.97721,0,0,0,1.37745.51856,2.14433,2.14433,0,0,0,1.64306-.73145,2.75728,2.75728,0,0,0,.67236-1.94141,2.49331,2.49331,0,0,0-.646-1.81445,2.25215,2.25215,0,0,0-1.69141-.665,2.34816,2.34816,0,0,0-1.17285.29492,2.2868,2.2868,0,0,0-.82129.76563L8.60938,12.376,9.66992,6.752h5.44385V8.03711H10.74512l-.58985,2.94238a3.56364,3.56364,0,0,1,2.06885-.6875,3.27728,3.27728,0,0,1,2.41943.99317,3.47115,3.47115,0,0,1,.98584,2.55371,3.98861,3.98861,0,0,1-.86621,2.56933,3.47183,3.47183,0,0,1-2.87548,1.3291,3.54085,3.54085,0,0,1-2.438-.83593A3.26447,3.26447,0,0,1,8.37061,14.68359Z"/>
  <rect width="24" height="24" style="fill: none"/>
</svg>
