<svg id="a3c74924-44e7-407e-a4ed-6777f4a08c82" data-name="레이어 1" xmlns="http://www.w3.org/2000/svg" viewBox="0 0 24 24">
  <title>icon</title>
  <path d="M15.4209,9.28418,14.084,9.38867a2.54626,2.54626,0,0,0-.50781-1.15039,1.78113,1.78113,0,0,0-1.34472-.57519,1.84963,1.84963,0,0,0-1.127.35839,3.0664,3.0664,0,0,0-1.001,1.35254,7.0486,7.0486,0,0,0-.38086,2.53125,3.09928,3.09928,0,0,1,1.1875-1.09765,3.18745,3.18745,0,0,1,1.4707-.3584,3.04916,3.04916,0,0,1,2.28906.98926,3.55082,3.55082,0,0,1,.94434,2.55761,4.19665,4.19665,0,0,1-.44434,1.915,3.23,3.23,0,0,1-1.2207,1.35547,3.32718,3.32718,0,0,1-1.7627.4707A3.44482,3.44482,0,0,1,9.44629,16.502a6.24181,6.24181,0,0,1-1.06055-4.07422A7.3005,7.3005,0,0,1,9.55859,7.8125a3.37045,3.37045,0,0,1,2.75489-1.25391A2.93243,2.93243,0,0,1,15.4209,9.28418ZM9.93164,14.00391a3.122,3.122,0,0,0,.29492,1.3291,2.19758,2.19758,0,0,0,.8252.96679,2.06235,2.06235,0,0,0,1.1123.332,1.895,1.895,0,0,0,1.46387-.68653,2.70416,2.70416,0,0,0,.6123-1.86719A2.52862,2.52862,0,0,0,13.63574,12.29a1.988,1.988,0,0,0-1.52344-.65332,2.07344,2.07344,0,0,0-1.54589.65332A2.35642,2.35642,0,0,0,9.93164,14.00391Z"/>
  <rect width="24" height="24" style="fill: none"/>
</svg>
