<svg id="e36c4562-6dd5-4694-90bb-44d170334af0" data-name="레이어 1" xmlns="http://www.w3.org/2000/svg" viewBox="0 0 24 24">
  <title>icon</title>
  <path d="M8.43042,12.15137a10.02568,10.02568,0,0,1,.39941-3.125,3.89231,3.89231,0,0,1,1.1875-1.82617,3.03734,3.03734,0,0,1,1.98243-.64161,3.23621,3.23621,0,0,1,1.54589.3545A2.95014,2.95014,0,0,1,14.6438,7.93652a5.485,5.485,0,0,1,.6792,1.62793,10.79721,10.79721,0,0,1,.24658,2.58692,10.03333,10.03333,0,0,1-.396,3.11035A3.88766,3.88766,0,0,1,13.99,17.0918a3.03524,3.03524,0,0,1-1.99023.6455,3.00269,3.00269,0,0,1-2.48633-1.13476A7.21282,7.21282,0,0,1,8.43042,12.15137Zm1.38135,0a6.8645,6.8645,0,0,0,.63135,3.58886,1.80309,1.80309,0,0,0,3.11376-.0039,6.86436,6.86436,0,0,0,.63135-3.585,6.86046,6.86046,0,0,0-.63135-3.5918,1.8713,1.8713,0,0,0-1.57177-.88867,1.7229,1.7229,0,0,0-1.47852.78418A6.93822,6.93822,0,0,0,9.81177,12.15137Z"/>
  <rect width="24" height="24" style="fill: none"/>
</svg>
