<svg id="aefd6d61-f397-483b-9ba3-7def75d11bc7" data-name="레이어 1" xmlns="http://www.w3.org/2000/svg" viewBox="0 0 24 24">
  <title>icon</title>
  <path d="M15.61874,16.25879v1.292H8.38241a2.3879,2.3879,0,0,1,.15674-.93359,4.92727,4.92727,0,0,1,.88525-1.45606,13.93823,13.93823,0,0,1,1.75831-1.6582,14.87677,14.87677,0,0,0,2.4121-2.31836,2.77669,2.77669,0,0,0,.62745-1.61719A1.797,1.797,0,0,0,13.651,8.21973a2.05933,2.05933,0,0,0-1.48975-.54883,2.09743,2.09743,0,0,0-1.55322.583,2.20211,2.20211,0,0,0-.58985,1.6123l-1.38183-.1416A3.40508,3.40508,0,0,1,9.70419,7.36816,3.64293,3.64293,0,0,1,12.191,6.55859a3.47165,3.47165,0,0,1,2.49414.87305,2.87013,2.87013,0,0,1,.91845,2.166,3.28252,3.28252,0,0,1-.26855,1.292,5.02079,5.02079,0,0,1-.89258,1.33691,21.73413,21.73413,0,0,1-2.07226,1.92676q-1.21,1.01514-1.55323,1.37695a4.447,4.447,0,0,0-.56738.72852Z"/>
  <rect width="24" height="24" style="fill: none"/>
</svg>
