<svg id="e27b95e7-85ff-4417-9c2c-36c951c6c0f7" data-name="레이어 1" xmlns="http://www.w3.org/2000/svg" viewBox="0 0 24 24">
  <title>icon</title>
  <path d="M8.60254,15.01953l1.292-.12012a2.24421,2.24421,0,0,0,.627,1.32227,1.72346,1.72346,0,0,0,1.1875.41016,2.04369,2.04369,0,0,0,1.08594-.28321,2.3266,2.3266,0,0,0,.76563-.75781,4.46412,4.46412,0,0,0,.501-1.28125A6.77263,6.77263,0,0,0,14.2627,12.667c0-.05957-.00293-.14941-.00782-.26855a3.07446,3.07446,0,0,1-1.10058,1.041,2.9927,2.9927,0,0,1-1.5127.39942,3.056,3.056,0,0,1-2.2998-.98535,3.60494,3.60494,0,0,1-.94141-2.59864,3.69008,3.69008,0,0,1,.98242-2.68066,3.277,3.277,0,0,1,2.46-1.01563,3.51439,3.51439,0,0,1,1.95313.57422,3.6028,3.6028,0,0,1,1.34472,1.63965,8.08154,8.08154,0,0,1,.459,3.08008,9.96291,9.96291,0,0,1-.45606,3.3418,3.91756,3.91756,0,0,1-1.35449,1.89355,3.5149,3.5149,0,0,1-2.11035.64941,2.89019,2.89019,0,0,1-3.07617-2.71777Zm5.50391-4.832a2.63456,2.63456,0,0,0-.61622-1.83691,1.93241,1.93241,0,0,0-1.48242-.67969,2.046,2.046,0,0,0-1.56054.73144,2.71426,2.71426,0,0,0-.665,1.89746,2.34007,2.34007,0,0,0,.63086,1.69825,2.076,2.076,0,0,0,1.55664.65429,1.99007,1.99007,0,0,0,1.53515-.65429A2.57494,2.57494,0,0,0,14.10645,10.1875Z"/>
  <rect width="24" height="24" style="fill: none"/>
</svg>
