<svg id="ba34a698-4854-42ee-b9b2-846f96fbc585" data-name="레이어 1" xmlns="http://www.w3.org/2000/svg" viewBox="0 0 24 24">
  <title>icon</title>
  <path d="M2.26611,17.55078,6.11475,7.5293H7.54346L11.645,17.55078H10.13428l-1.169-3.03516H4.7749L3.67432,17.55078Zm2.8916-4.11523H8.55518l-1.0459-2.77539Q7.031,9.396,6.79834,8.582a12.76661,12.76661,0,0,1-.54,1.91406Zm14.69727.60156,1.32617.335a4.46168,4.46168,0,0,1-1.50049,2.49121,4.13277,4.13277,0,0,1-2.64892.8584,4.76293,4.76293,0,0,1-2.63526-.65918,4.12273,4.12273,0,0,1-1.54492-1.91113,6.82023,6.82023,0,0,1-.52978-2.68653,5.89836,5.89836,0,0,1,.59814-2.73046,4.10593,4.10593,0,0,1,1.70215-1.77149,4.98286,4.98286,0,0,1,2.43018-.60449,4.10655,4.10655,0,0,1,2.52929.76562,3.9792,3.9792,0,0,1,1.42871,2.15332l-1.30566.30762a3.09813,3.09813,0,0,0-1.01172-1.59277,2.69358,2.69358,0,0,0-1.668-.499,3.2399,3.2399,0,0,0-1.93115.55372,2.92683,2.92683,0,0,0-1.09033,1.48632A5.99627,5.99627,0,0,0,13.689,12.458a6.10417,6.10417,0,0,0,.37256,2.23144,2.77416,2.77416,0,0,0,1.15869,1.42578,3.24871,3.24871,0,0,0,1.70215.47168,2.85114,2.85114,0,0,0,1.88672-.64257A3.28884,3.28884,0,0,0,19.855,14.03711Z"/>
  <rect width="24" height="24" style="fill: none"/>
</svg>
