<svg id="b810089a-3ac7-44a2-a55f-8cdc6795b36b" data-name="레이어 1" xmlns="http://www.w3.org/2000/svg" viewBox="0 0 24 24">
  <title>icon</title>
  <path d="M10.47656,11.61426a2.53076,2.53076,0,0,1-1.23926-.874A2.28239,2.28239,0,0,1,8.834,9.38086a2.65859,2.65859,0,0,1,.85889-2.00879,3.18641,3.18641,0,0,1,2.28467-.81348,3.20748,3.20748,0,0,1,2.30762.832,2.69684,2.69684,0,0,1,.874,2.02735,2.234,2.234,0,0,1-.3999,1.32617,2.51828,2.51828,0,0,1-1.21338.87012,2.79212,2.79212,0,0,1,2.061,2.80762,3.144,3.144,0,0,1-.99316,2.35937A3.6089,3.6089,0,0,1,12,17.7373a3.60336,3.60336,0,0,1-2.61377-.959,3.19321,3.19321,0,0,1-.99316-2.39355,2.89544,2.89544,0,0,1,.5415-1.78907A2.708,2.708,0,0,1,10.47656,11.61426ZM9.7749,14.3916a2.4336,2.4336,0,0,0,.27246,1.11328,1.91986,1.91986,0,0,0,.81006.832,2.363,2.363,0,0,0,1.15772.29493A2.17028,2.17028,0,0,0,13.606,16.0127a2.122,2.122,0,0,0,.627-1.57618,2.15657,2.15657,0,0,0-.646-1.60547,2.21526,2.21526,0,0,0-1.6167-.63476A2.13746,2.13746,0,0,0,9.7749,14.3916ZM10.208,9.33594a1.70113,1.70113,0,0,0,.50049,1.26953,1.76946,1.76946,0,0,0,1.29931.49316,1.73738,1.73738,0,0,0,1.273-.48925,1.61735,1.61735,0,0,0,.49658-1.19825A1.67623,1.67623,0,0,0,13.26611,8.168a1.73975,1.73975,0,0,0-1.27343-.50488,1.76119,1.76119,0,0,0-1.27686.49316A1.58577,1.58577,0,0,0,10.208,9.33594Z"/>
  <rect width="24" height="24" style="fill: none"/>
</svg>
